G04 #@! TF.GenerationSoftware,KiCad,Pcbnew,(6.0.4)*
G04 #@! TF.CreationDate,2023-10-24T13:53:14+07:00*
G04 #@! TF.ProjectId,Station-Hardware-ver-01,53746174-696f-46e2-9d48-617264776172,rev?*
G04 #@! TF.SameCoordinates,Original*
G04 #@! TF.FileFunction,Soldermask,Top*
G04 #@! TF.FilePolarity,Negative*
%FSLAX46Y46*%
G04 Gerber Fmt 4.6, Leading zero omitted, Abs format (unit mm)*
G04 Created by KiCad (PCBNEW (6.0.4)) date 2023-10-24 13:53:14*
%MOMM*%
%LPD*%
G01*
G04 APERTURE LIST*
G04 Aperture macros list*
%AMRoundRect*
0 Rectangle with rounded corners*
0 $1 Rounding radius*
0 $2 $3 $4 $5 $6 $7 $8 $9 X,Y pos of 4 corners*
0 Add a 4 corners polygon primitive as box body*
4,1,4,$2,$3,$4,$5,$6,$7,$8,$9,$2,$3,0*
0 Add four circle primitives for the rounded corners*
1,1,$1+$1,$2,$3*
1,1,$1+$1,$4,$5*
1,1,$1+$1,$6,$7*
1,1,$1+$1,$8,$9*
0 Add four rect primitives between the rounded corners*
20,1,$1+$1,$2,$3,$4,$5,0*
20,1,$1+$1,$4,$5,$6,$7,0*
20,1,$1+$1,$6,$7,$8,$9,0*
20,1,$1+$1,$8,$9,$2,$3,0*%
G04 Aperture macros list end*
%ADD10C,0.120000*%
%ADD11O,2.000000X1.905000*%
%ADD12R,2.000000X1.905000*%
%ADD13C,1.524000*%
%ADD14R,1.524000X1.524000*%
%ADD15C,3.500000*%
%ADD16R,2.400000X1.600000*%
%ADD17O,2.400000X1.600000*%
%ADD18C,1.700000*%
%ADD19R,1.700000X1.700000*%
%ADD20O,1.700000X1.700000*%
%ADD21C,1.300000*%
%ADD22C,2.360000*%
%ADD23RoundRect,0.875000X0.875000X-0.875000X0.875000X0.875000X-0.875000X0.875000X-0.875000X-0.875000X0*%
%ADD24RoundRect,0.750000X1.000000X-0.750000X1.000000X0.750000X-1.000000X0.750000X-1.000000X-0.750000X0*%
%ADD25R,3.500000X3.500000*%
G04 APERTURE END LIST*
D10*
G04 #@! TO.C,U3*
X168150000Y-41380000D02*
X194150000Y-41380000D01*
X194150000Y-41380000D02*
X194150000Y-66880000D01*
X194150000Y-66880000D02*
X168150000Y-66880000D01*
X168150000Y-66880000D02*
X168150000Y-41380000D01*
G04 #@! TO.C,U2*
X182830000Y-73100000D02*
X185370000Y-73100000D01*
X185370000Y-73100000D02*
X185370000Y-88340000D01*
X185370000Y-88340000D02*
X182830000Y-88340000D01*
X182830000Y-88340000D02*
X182830000Y-73100000D01*
X220830000Y-75640000D02*
X218290000Y-75640000D01*
X218290000Y-75640000D02*
X218290000Y-78180000D01*
X218290000Y-78180000D02*
X220830000Y-78180000D01*
X220830000Y-78180000D02*
X220830000Y-75640000D01*
X220830000Y-78180000D02*
X218290000Y-78180000D01*
X218290000Y-78180000D02*
X218290000Y-85800000D01*
X218290000Y-85800000D02*
X220830000Y-85800000D01*
X220830000Y-85800000D02*
X220830000Y-78180000D01*
G04 #@! TO.C,J5*
X221148000Y-105000000D02*
G75*
G03*
X221148000Y-105000000I-1180000J0D01*
G01*
X208948000Y-105000000D02*
G75*
G03*
X208948000Y-105000000I-1180000J0D01*
G01*
X207768000Y-98000000D02*
X219968000Y-98000000D01*
X219968000Y-98000000D02*
X219968000Y-111000000D01*
X219968000Y-111000000D02*
X207768000Y-111000000D01*
X207768000Y-111000000D02*
X207768000Y-98000000D01*
G04 #@! TO.C,J4*
X205400000Y-105010000D02*
G75*
G03*
X205400000Y-105010000I-1180000J0D01*
G01*
X193200000Y-105010000D02*
G75*
G03*
X193200000Y-105010000I-1180000J0D01*
G01*
X192020000Y-98010000D02*
X204220000Y-98010000D01*
X204220000Y-98010000D02*
X204220000Y-111010000D01*
X204220000Y-111010000D02*
X192020000Y-111010000D01*
X192020000Y-111010000D02*
X192020000Y-98010000D01*
G04 #@! TD*
D11*
G04 #@! TO.C,U6*
X186405000Y-102030000D03*
X186405000Y-104570000D03*
D12*
X186405000Y-107110000D03*
G04 #@! TD*
D13*
G04 #@! TO.C,U5*
X179020000Y-74440000D03*
X179020000Y-79520000D03*
X179020000Y-82060000D03*
X179020000Y-84600000D03*
X179020000Y-76980000D03*
D14*
X179020000Y-87140000D03*
D15*
X170870000Y-85910000D03*
X170870000Y-75670000D03*
G04 #@! TD*
D16*
G04 #@! TO.C,U4*
X212583000Y-52060000D03*
D17*
X212583000Y-49520000D03*
X212583000Y-46980000D03*
X212583000Y-44440000D03*
X220203000Y-44440000D03*
X220203000Y-46980000D03*
X220203000Y-49520000D03*
X220203000Y-52060000D03*
G04 #@! TD*
D14*
G04 #@! TO.C,U3*
X177270000Y-65930000D03*
D13*
X177270000Y-63390000D03*
X179810000Y-65930000D03*
X179810000Y-63390000D03*
X182350000Y-65930000D03*
X182350000Y-63390000D03*
X184890000Y-65930000D03*
X184890000Y-63390000D03*
G04 #@! TD*
D14*
G04 #@! TO.C,U2*
X219560000Y-76910000D03*
D13*
X219560000Y-79450000D03*
X219560000Y-81990000D03*
X219560000Y-84530000D03*
D14*
X184100000Y-74370000D03*
D13*
X184100000Y-76990000D03*
X184100000Y-82070000D03*
X184100000Y-79530000D03*
X184100000Y-84610000D03*
X184100000Y-87150000D03*
G04 #@! TD*
D18*
G04 #@! TO.C,U1*
X206770000Y-43980000D03*
D19*
X191530000Y-43980000D03*
D18*
X206770000Y-46520000D03*
X191530000Y-46520000D03*
X206770000Y-49060000D03*
X191530000Y-49060000D03*
X206770000Y-51600000D03*
X191530000Y-51600000D03*
X206770000Y-54140000D03*
X191530000Y-54140000D03*
X206770000Y-56680000D03*
X191530000Y-56680000D03*
X206770000Y-59220000D03*
X191530000Y-59220000D03*
X206770000Y-61760000D03*
X191530000Y-61760000D03*
X206770000Y-64300000D03*
X191530000Y-64300000D03*
X206770000Y-66840000D03*
X191530000Y-66840000D03*
X206770000Y-69380000D03*
X191530000Y-69380000D03*
X206770000Y-71920000D03*
X191530000Y-71920000D03*
X206770000Y-74460000D03*
X191530000Y-74460000D03*
X206770000Y-77000000D03*
X191530000Y-77000000D03*
X206770000Y-79540000D03*
X191530000Y-79540000D03*
X206770000Y-82080000D03*
X191530000Y-82080000D03*
X206770000Y-84620000D03*
X191530000Y-84620000D03*
X206770000Y-87160000D03*
X191530000Y-87160000D03*
X206770000Y-89700000D03*
X191530000Y-89700000D03*
X206770000Y-92240000D03*
X191530000Y-92240000D03*
G04 #@! TD*
D20*
G04 #@! TO.C,J6*
X196690000Y-66040000D03*
X199230000Y-66040000D03*
D19*
X201770000Y-66040000D03*
G04 #@! TD*
D21*
G04 #@! TO.C,J5*
X215393000Y-102700000D03*
X213358000Y-102600000D03*
X214378000Y-100160000D03*
X212343000Y-100160000D03*
D22*
X219968000Y-105000000D03*
X207768000Y-105000000D03*
G04 #@! TD*
D21*
G04 #@! TO.C,J4*
X199645000Y-102710000D03*
X197610000Y-102610000D03*
X198630000Y-100170000D03*
X196595000Y-100170000D03*
D22*
X204220000Y-105010000D03*
X192020000Y-105010000D03*
G04 #@! TD*
D20*
G04 #@! TO.C,J3*
X199415000Y-59205000D03*
X199415000Y-56665000D03*
D19*
X199415000Y-54125000D03*
G04 #@! TD*
D20*
G04 #@! TO.C,J2*
X185745000Y-71165000D03*
X183205000Y-71165000D03*
D19*
X180665000Y-71165000D03*
G04 #@! TD*
D23*
G04 #@! TO.C,J1*
X180352500Y-103800000D03*
D24*
X175652500Y-106800000D03*
D25*
X175652500Y-100800000D03*
G04 #@! TD*
M02*
