G04 #@! TF.GenerationSoftware,KiCad,Pcbnew,(6.0.4)*
G04 #@! TF.CreationDate,2023-10-24T23:32:09+07:00*
G04 #@! TF.ProjectId,Station-Hardware-ver-01,53746174-696f-46e2-9d48-617264776172,rev?*
G04 #@! TF.SameCoordinates,Original*
G04 #@! TF.FileFunction,AssemblyDrawing,Top*
%FSLAX46Y46*%
G04 Gerber Fmt 4.6, Leading zero omitted, Abs format (unit mm)*
G04 Created by KiCad (PCBNEW (6.0.4)) date 2023-10-24 23:32:09*
%MOMM*%
%LPD*%
G01*
G04 APERTURE LIST*
%ADD10C,0.150000*%
%ADD11C,0.025000*%
%ADD12C,0.120000*%
%ADD13C,0.100000*%
G04 APERTURE END LIST*
D10*
G04 #@! TO.C,U3*
X178045238Y-48201428D02*
X177997619Y-48344285D01*
X177997619Y-48582380D01*
X178045238Y-48677619D01*
X178092857Y-48725238D01*
X178188095Y-48772857D01*
X178283333Y-48772857D01*
X178378571Y-48725238D01*
X178426190Y-48677619D01*
X178473809Y-48582380D01*
X178521428Y-48391904D01*
X178569047Y-48296666D01*
X178616666Y-48249047D01*
X178711904Y-48201428D01*
X178807142Y-48201428D01*
X178902380Y-48249047D01*
X178950000Y-48296666D01*
X178997619Y-48391904D01*
X178997619Y-48630000D01*
X178950000Y-48772857D01*
X178997619Y-49106190D02*
X177997619Y-49772857D01*
X178997619Y-49772857D02*
X177997619Y-49106190D01*
X177997619Y-50677619D02*
X177997619Y-50106190D01*
X177997619Y-50391904D02*
X178997619Y-50391904D01*
X178854761Y-50296666D01*
X178759523Y-50201428D01*
X178711904Y-50106190D01*
X178902380Y-51058571D02*
X178950000Y-51106190D01*
X178997619Y-51201428D01*
X178997619Y-51439523D01*
X178950000Y-51534761D01*
X178902380Y-51582380D01*
X178807142Y-51630000D01*
X178711904Y-51630000D01*
X178569047Y-51582380D01*
X177997619Y-51010952D01*
X177997619Y-51630000D01*
X178997619Y-51963333D02*
X178997619Y-52630000D01*
X177997619Y-52201428D01*
X178569047Y-53153809D02*
X178616666Y-53058571D01*
X178664285Y-53010952D01*
X178759523Y-52963333D01*
X178807142Y-52963333D01*
X178902380Y-53010952D01*
X178950000Y-53058571D01*
X178997619Y-53153809D01*
X178997619Y-53344285D01*
X178950000Y-53439523D01*
X178902380Y-53487142D01*
X178807142Y-53534761D01*
X178759523Y-53534761D01*
X178664285Y-53487142D01*
X178616666Y-53439523D01*
X178569047Y-53344285D01*
X178569047Y-53153809D01*
X178521428Y-53058571D01*
X178473809Y-53010952D01*
X178378571Y-52963333D01*
X178188095Y-52963333D01*
X178092857Y-53010952D01*
X178045238Y-53058571D01*
X177997619Y-53153809D01*
X177997619Y-53344285D01*
X178045238Y-53439523D01*
X178092857Y-53487142D01*
X178188095Y-53534761D01*
X178378571Y-53534761D01*
X178473809Y-53487142D01*
X178521428Y-53439523D01*
X178569047Y-53344285D01*
X177902380Y-53725238D02*
X177902380Y-54487142D01*
X177997619Y-54725238D02*
X178997619Y-54725238D01*
X178283333Y-55058571D01*
X178997619Y-55391904D01*
X177997619Y-55391904D01*
X177997619Y-55868095D02*
X178664285Y-55868095D01*
X178997619Y-55868095D02*
X178950000Y-55820476D01*
X178902380Y-55868095D01*
X178950000Y-55915714D01*
X178997619Y-55868095D01*
X178902380Y-55868095D01*
X178664285Y-56344285D02*
X177997619Y-56344285D01*
X178569047Y-56344285D02*
X178616666Y-56391904D01*
X178664285Y-56487142D01*
X178664285Y-56630000D01*
X178616666Y-56725238D01*
X178521428Y-56772857D01*
X177997619Y-56772857D01*
X177997619Y-57249047D02*
X178664285Y-57249047D01*
X178997619Y-57249047D02*
X178950000Y-57201428D01*
X178902380Y-57249047D01*
X178950000Y-57296666D01*
X178997619Y-57249047D01*
X178902380Y-57249047D01*
X177997619Y-57725238D02*
X178664285Y-57725238D01*
X178569047Y-57725238D02*
X178616666Y-57772857D01*
X178664285Y-57868095D01*
X178664285Y-58010952D01*
X178616666Y-58106190D01*
X178521428Y-58153809D01*
X177997619Y-58153809D01*
X178521428Y-58153809D02*
X178616666Y-58201428D01*
X178664285Y-58296666D01*
X178664285Y-58439523D01*
X178616666Y-58534761D01*
X178521428Y-58582380D01*
X177997619Y-58582380D01*
X177997619Y-59487142D02*
X178521428Y-59487142D01*
X178616666Y-59439523D01*
X178664285Y-59344285D01*
X178664285Y-59153809D01*
X178616666Y-59058571D01*
X178045238Y-59487142D02*
X177997619Y-59391904D01*
X177997619Y-59153809D01*
X178045238Y-59058571D01*
X178140476Y-59010952D01*
X178235714Y-59010952D01*
X178330952Y-59058571D01*
X178378571Y-59153809D01*
X178378571Y-59391904D01*
X178426190Y-59487142D01*
X177997619Y-60106190D02*
X178045238Y-60010952D01*
X178140476Y-59963333D01*
X178997619Y-59963333D01*
X180597619Y-53368095D02*
X179788095Y-53368095D01*
X179692857Y-53415714D01*
X179645238Y-53463333D01*
X179597619Y-53558571D01*
X179597619Y-53749047D01*
X179645238Y-53844285D01*
X179692857Y-53891904D01*
X179788095Y-53939523D01*
X180597619Y-53939523D01*
X180597619Y-54320476D02*
X180597619Y-54939523D01*
X180216666Y-54606190D01*
X180216666Y-54749047D01*
X180169047Y-54844285D01*
X180121428Y-54891904D01*
X180026190Y-54939523D01*
X179788095Y-54939523D01*
X179692857Y-54891904D01*
X179645238Y-54844285D01*
X179597619Y-54749047D01*
X179597619Y-54463333D01*
X179645238Y-54368095D01*
X179692857Y-54320476D01*
G04 #@! TO.C,U1*
X199602380Y-69443333D02*
X199126190Y-69776666D01*
X199602380Y-70014761D02*
X198602380Y-70014761D01*
X198602380Y-69633809D01*
X198650000Y-69538571D01*
X198697619Y-69490952D01*
X198792857Y-69443333D01*
X198935714Y-69443333D01*
X199030952Y-69490952D01*
X199078571Y-69538571D01*
X199126190Y-69633809D01*
X199126190Y-70014761D01*
X199078571Y-69014761D02*
X199078571Y-68681428D01*
X199602380Y-68538571D02*
X199602380Y-69014761D01*
X198602380Y-69014761D01*
X198602380Y-68538571D01*
X199078571Y-67776666D02*
X199078571Y-68110000D01*
X199602380Y-68110000D02*
X198602380Y-68110000D01*
X198602380Y-67633809D01*
X198602380Y-67110000D02*
X198840476Y-67110000D01*
X198745238Y-67348095D02*
X198840476Y-67110000D01*
X198745238Y-66871904D01*
X199030952Y-67252857D02*
X198840476Y-67110000D01*
X199030952Y-66967142D01*
X198602380Y-66348095D02*
X198840476Y-66348095D01*
X198745238Y-66586190D02*
X198840476Y-66348095D01*
X198745238Y-66110000D01*
X199030952Y-66490952D02*
X198840476Y-66348095D01*
X199030952Y-66205238D01*
G04 #@! TO.C,U5*
X175048571Y-84766190D02*
X175096190Y-84623333D01*
X175143809Y-84575714D01*
X175239047Y-84528095D01*
X175381904Y-84528095D01*
X175477142Y-84575714D01*
X175524761Y-84623333D01*
X175572380Y-84718571D01*
X175572380Y-85099523D01*
X174572380Y-85099523D01*
X174572380Y-84766190D01*
X174620000Y-84670952D01*
X174667619Y-84623333D01*
X174762857Y-84575714D01*
X174858095Y-84575714D01*
X174953333Y-84623333D01*
X175000952Y-84670952D01*
X175048571Y-84766190D01*
X175048571Y-85099523D01*
X175572380Y-84099523D02*
X174572380Y-84099523D01*
X175286666Y-83766190D01*
X174572380Y-83432857D01*
X175572380Y-83432857D01*
X175048571Y-82956666D02*
X175048571Y-82623333D01*
X175572380Y-82480476D02*
X175572380Y-82956666D01*
X174572380Y-82956666D01*
X174572380Y-82480476D01*
X174667619Y-82099523D02*
X174620000Y-82051904D01*
X174572380Y-81956666D01*
X174572380Y-81718571D01*
X174620000Y-81623333D01*
X174667619Y-81575714D01*
X174762857Y-81528095D01*
X174858095Y-81528095D01*
X175000952Y-81575714D01*
X175572380Y-82147142D01*
X175572380Y-81528095D01*
X175000952Y-80956666D02*
X174953333Y-81051904D01*
X174905714Y-81099523D01*
X174810476Y-81147142D01*
X174762857Y-81147142D01*
X174667619Y-81099523D01*
X174620000Y-81051904D01*
X174572380Y-80956666D01*
X174572380Y-80766190D01*
X174620000Y-80670952D01*
X174667619Y-80623333D01*
X174762857Y-80575714D01*
X174810476Y-80575714D01*
X174905714Y-80623333D01*
X174953333Y-80670952D01*
X175000952Y-80766190D01*
X175000952Y-80956666D01*
X175048571Y-81051904D01*
X175096190Y-81099523D01*
X175191428Y-81147142D01*
X175381904Y-81147142D01*
X175477142Y-81099523D01*
X175524761Y-81051904D01*
X175572380Y-80956666D01*
X175572380Y-80766190D01*
X175524761Y-80670952D01*
X175477142Y-80623333D01*
X175381904Y-80575714D01*
X175191428Y-80575714D01*
X175096190Y-80623333D01*
X175048571Y-80670952D01*
X175000952Y-80766190D01*
X174572380Y-79956666D02*
X174572380Y-79861428D01*
X174620000Y-79766190D01*
X174667619Y-79718571D01*
X174762857Y-79670952D01*
X174953333Y-79623333D01*
X175191428Y-79623333D01*
X175381904Y-79670952D01*
X175477142Y-79718571D01*
X175524761Y-79766190D01*
X175572380Y-79861428D01*
X175572380Y-79956666D01*
X175524761Y-80051904D01*
X175477142Y-80099523D01*
X175381904Y-80147142D01*
X175191428Y-80194761D01*
X174953333Y-80194761D01*
X174762857Y-80147142D01*
X174667619Y-80099523D01*
X174620000Y-80051904D01*
X174572380Y-79956666D01*
X175667619Y-79432857D02*
X175667619Y-78670952D01*
X175572380Y-78432857D02*
X174572380Y-78432857D01*
X174667619Y-78004285D02*
X174620000Y-77956666D01*
X174572380Y-77861428D01*
X174572380Y-77623333D01*
X174620000Y-77528095D01*
X174667619Y-77480476D01*
X174762857Y-77432857D01*
X174858095Y-77432857D01*
X175000952Y-77480476D01*
X175572380Y-78051904D01*
X175572380Y-77432857D01*
X175477142Y-76432857D02*
X175524761Y-76480476D01*
X175572380Y-76623333D01*
X175572380Y-76718571D01*
X175524761Y-76861428D01*
X175429523Y-76956666D01*
X175334285Y-77004285D01*
X175143809Y-77051904D01*
X175000952Y-77051904D01*
X174810476Y-77004285D01*
X174715238Y-76956666D01*
X174620000Y-76861428D01*
X174572380Y-76718571D01*
X174572380Y-76623333D01*
X174620000Y-76480476D01*
X174667619Y-76432857D01*
D11*
X171492142Y-81375238D02*
X171504047Y-81339523D01*
X171515952Y-81327619D01*
X171539761Y-81315714D01*
X171575476Y-81315714D01*
X171599285Y-81327619D01*
X171611190Y-81339523D01*
X171623095Y-81363333D01*
X171623095Y-81458571D01*
X171373095Y-81458571D01*
X171373095Y-81375238D01*
X171385000Y-81351428D01*
X171396904Y-81339523D01*
X171420714Y-81327619D01*
X171444523Y-81327619D01*
X171468333Y-81339523D01*
X171480238Y-81351428D01*
X171492142Y-81375238D01*
X171492142Y-81458571D01*
X171623095Y-81208571D02*
X171373095Y-81208571D01*
X171551666Y-81125238D01*
X171373095Y-81041904D01*
X171623095Y-81041904D01*
X171492142Y-80922857D02*
X171492142Y-80839523D01*
X171623095Y-80803809D02*
X171623095Y-80922857D01*
X171373095Y-80922857D01*
X171373095Y-80803809D01*
X171396904Y-80708571D02*
X171385000Y-80696666D01*
X171373095Y-80672857D01*
X171373095Y-80613333D01*
X171385000Y-80589523D01*
X171396904Y-80577619D01*
X171420714Y-80565714D01*
X171444523Y-80565714D01*
X171480238Y-80577619D01*
X171623095Y-80720476D01*
X171623095Y-80565714D01*
X171480238Y-80422857D02*
X171468333Y-80446666D01*
X171456428Y-80458571D01*
X171432619Y-80470476D01*
X171420714Y-80470476D01*
X171396904Y-80458571D01*
X171385000Y-80446666D01*
X171373095Y-80422857D01*
X171373095Y-80375238D01*
X171385000Y-80351428D01*
X171396904Y-80339523D01*
X171420714Y-80327619D01*
X171432619Y-80327619D01*
X171456428Y-80339523D01*
X171468333Y-80351428D01*
X171480238Y-80375238D01*
X171480238Y-80422857D01*
X171492142Y-80446666D01*
X171504047Y-80458571D01*
X171527857Y-80470476D01*
X171575476Y-80470476D01*
X171599285Y-80458571D01*
X171611190Y-80446666D01*
X171623095Y-80422857D01*
X171623095Y-80375238D01*
X171611190Y-80351428D01*
X171599285Y-80339523D01*
X171575476Y-80327619D01*
X171527857Y-80327619D01*
X171504047Y-80339523D01*
X171492142Y-80351428D01*
X171480238Y-80375238D01*
X171373095Y-80172857D02*
X171373095Y-80149047D01*
X171385000Y-80125238D01*
X171396904Y-80113333D01*
X171420714Y-80101428D01*
X171468333Y-80089523D01*
X171527857Y-80089523D01*
X171575476Y-80101428D01*
X171599285Y-80113333D01*
X171611190Y-80125238D01*
X171623095Y-80149047D01*
X171623095Y-80172857D01*
X171611190Y-80196666D01*
X171599285Y-80208571D01*
X171575476Y-80220476D01*
X171527857Y-80232380D01*
X171468333Y-80232380D01*
X171420714Y-80220476D01*
X171396904Y-80208571D01*
X171385000Y-80196666D01*
X171373095Y-80172857D01*
D10*
X176072380Y-81551904D02*
X176881904Y-81551904D01*
X176977142Y-81504285D01*
X177024761Y-81456666D01*
X177072380Y-81361428D01*
X177072380Y-81170952D01*
X177024761Y-81075714D01*
X176977142Y-81028095D01*
X176881904Y-80980476D01*
X176072380Y-80980476D01*
X176072380Y-80028095D02*
X176072380Y-80504285D01*
X176548571Y-80551904D01*
X176500952Y-80504285D01*
X176453333Y-80409047D01*
X176453333Y-80170952D01*
X176500952Y-80075714D01*
X176548571Y-80028095D01*
X176643809Y-79980476D01*
X176881904Y-79980476D01*
X176977142Y-80028095D01*
X177024761Y-80075714D01*
X177072380Y-80170952D01*
X177072380Y-80409047D01*
X177024761Y-80504285D01*
X176977142Y-80551904D01*
G04 #@! TO.C,J2*
X179672380Y-68212380D02*
X180291428Y-68212380D01*
X179958095Y-68593333D01*
X180100952Y-68593333D01*
X180196190Y-68640952D01*
X180243809Y-68688571D01*
X180291428Y-68783809D01*
X180291428Y-69021904D01*
X180243809Y-69117142D01*
X180196190Y-69164761D01*
X180100952Y-69212380D01*
X179815238Y-69212380D01*
X179720000Y-69164761D01*
X179672380Y-69117142D01*
X180672380Y-68307619D02*
X180720000Y-68260000D01*
X180815238Y-68212380D01*
X181053333Y-68212380D01*
X181148571Y-68260000D01*
X181196190Y-68307619D01*
X181243809Y-68402857D01*
X181243809Y-68498095D01*
X181196190Y-68640952D01*
X180624761Y-69212380D01*
X181243809Y-69212380D01*
X181577142Y-68212380D02*
X182243809Y-68212380D01*
X181815238Y-69212380D01*
X183053333Y-68212380D02*
X182862857Y-68212380D01*
X182767619Y-68260000D01*
X182720000Y-68307619D01*
X182624761Y-68450476D01*
X182577142Y-68640952D01*
X182577142Y-69021904D01*
X182624761Y-69117142D01*
X182672380Y-69164761D01*
X182767619Y-69212380D01*
X182958095Y-69212380D01*
X183053333Y-69164761D01*
X183100952Y-69117142D01*
X183148571Y-69021904D01*
X183148571Y-68783809D01*
X183100952Y-68688571D01*
X183053333Y-68640952D01*
X182958095Y-68593333D01*
X182767619Y-68593333D01*
X182672380Y-68640952D01*
X182624761Y-68688571D01*
X182577142Y-68783809D01*
X183720000Y-68640952D02*
X183624761Y-68593333D01*
X183577142Y-68545714D01*
X183529523Y-68450476D01*
X183529523Y-68402857D01*
X183577142Y-68307619D01*
X183624761Y-68260000D01*
X183720000Y-68212380D01*
X183910476Y-68212380D01*
X184005714Y-68260000D01*
X184053333Y-68307619D01*
X184100952Y-68402857D01*
X184100952Y-68450476D01*
X184053333Y-68545714D01*
X184005714Y-68593333D01*
X183910476Y-68640952D01*
X183720000Y-68640952D01*
X183624761Y-68688571D01*
X183577142Y-68736190D01*
X183529523Y-68831428D01*
X183529523Y-69021904D01*
X183577142Y-69117142D01*
X183624761Y-69164761D01*
X183720000Y-69212380D01*
X183910476Y-69212380D01*
X184005714Y-69164761D01*
X184053333Y-69117142D01*
X184100952Y-69021904D01*
X184100952Y-68831428D01*
X184053333Y-68736190D01*
X184005714Y-68688571D01*
X183910476Y-68640952D01*
X185291428Y-69212380D02*
X185291428Y-68212380D01*
X185291428Y-68688571D02*
X185862857Y-68688571D01*
X185862857Y-69212380D02*
X185862857Y-68212380D01*
X186243809Y-68545714D02*
X186767619Y-68545714D01*
X186243809Y-69212380D01*
X186767619Y-69212380D01*
X182871666Y-70617380D02*
X182871666Y-71331666D01*
X182824047Y-71474523D01*
X182728809Y-71569761D01*
X182585952Y-71617380D01*
X182490714Y-71617380D01*
X183300238Y-70712619D02*
X183347857Y-70665000D01*
X183443095Y-70617380D01*
X183681190Y-70617380D01*
X183776428Y-70665000D01*
X183824047Y-70712619D01*
X183871666Y-70807857D01*
X183871666Y-70903095D01*
X183824047Y-71045952D01*
X183252619Y-71617380D01*
X183871666Y-71617380D01*
G04 #@! TO.C,U6*
X183789523Y-99072380D02*
X183313333Y-99072380D01*
X183313333Y-98072380D01*
X184122857Y-99072380D02*
X184122857Y-98072380D01*
X184456190Y-98786666D01*
X184789523Y-98072380D01*
X184789523Y-99072380D01*
X185170476Y-98072380D02*
X185789523Y-98072380D01*
X185456190Y-98453333D01*
X185599047Y-98453333D01*
X185694285Y-98500952D01*
X185741904Y-98548571D01*
X185789523Y-98643809D01*
X185789523Y-98881904D01*
X185741904Y-98977142D01*
X185694285Y-99024761D01*
X185599047Y-99072380D01*
X185313333Y-99072380D01*
X185218095Y-99024761D01*
X185170476Y-98977142D01*
X186741904Y-99072380D02*
X186170476Y-99072380D01*
X186456190Y-99072380D02*
X186456190Y-98072380D01*
X186360952Y-98215238D01*
X186265714Y-98310476D01*
X186170476Y-98358095D01*
X187075238Y-98072380D02*
X187741904Y-98072380D01*
X187313333Y-99072380D01*
X181512380Y-100931904D02*
X182321904Y-100931904D01*
X182417142Y-100884285D01*
X182464761Y-100836666D01*
X182512380Y-100741428D01*
X182512380Y-100550952D01*
X182464761Y-100455714D01*
X182417142Y-100408095D01*
X182321904Y-100360476D01*
X181512380Y-100360476D01*
X181512380Y-99455714D02*
X181512380Y-99646190D01*
X181560000Y-99741428D01*
X181607619Y-99789047D01*
X181750476Y-99884285D01*
X181940952Y-99931904D01*
X182321904Y-99931904D01*
X182417142Y-99884285D01*
X182464761Y-99836666D01*
X182512380Y-99741428D01*
X182512380Y-99550952D01*
X182464761Y-99455714D01*
X182417142Y-99408095D01*
X182321904Y-99360476D01*
X182083809Y-99360476D01*
X181988571Y-99408095D01*
X181940952Y-99455714D01*
X181893333Y-99550952D01*
X181893333Y-99741428D01*
X181940952Y-99836666D01*
X181988571Y-99884285D01*
X182083809Y-99931904D01*
D12*
G04 #@! TO.C,U1*
X187850000Y-41610000D02*
X210450000Y-41610000D01*
D13*
X195250000Y-47460000D02*
X203050000Y-47460000D01*
X203050000Y-47460000D02*
X203050000Y-41660000D01*
X195250000Y-47460000D02*
X195250000Y-41660000D01*
X190260000Y-43345000D02*
X190895000Y-42710000D01*
X192800000Y-42710000D02*
X192800000Y-93510000D01*
X205500000Y-93510000D02*
X205500000Y-42710000D01*
X190260000Y-93510000D02*
X190260000Y-43345000D01*
D12*
X187850000Y-94610000D02*
X210450000Y-94610000D01*
D13*
X208040000Y-93510000D02*
X205500000Y-93510000D01*
D12*
X210450000Y-41610000D02*
X210450000Y-94610000D01*
D13*
X208040000Y-42710000D02*
X208040000Y-93510000D01*
D12*
X187850000Y-94610000D02*
X187850000Y-41660000D01*
D13*
X190895000Y-42710000D02*
X192800000Y-42710000D01*
X192800000Y-93510000D02*
X190260000Y-93510000D01*
X205500000Y-42710000D02*
X208040000Y-42710000D01*
D12*
G04 #@! TO.C,U5*
X170860000Y-82040000D02*
X173360000Y-82040000D01*
X173360000Y-82040000D02*
X173360000Y-79540000D01*
X173360000Y-79540000D02*
X170860000Y-79540000D01*
X170860000Y-79540000D02*
X170860000Y-82040000D01*
X172271327Y-81660000D02*
G75*
G03*
X172271327Y-81660000I-151327J0D01*
G01*
D13*
G04 #@! TO.C,J2*
X187015000Y-69895000D02*
X187015000Y-72435000D01*
X180030000Y-69895000D02*
X187015000Y-69895000D01*
X187015000Y-72435000D02*
X179395000Y-72435000D01*
X179395000Y-72435000D02*
X179395000Y-70530000D01*
X179395000Y-70530000D02*
X180030000Y-69895000D01*
G04 #@! TO.C,J1*
X171147075Y-100803213D02*
X171902500Y-100000000D01*
X171152500Y-100800000D02*
X171152500Y-114500000D01*
X180152500Y-100000000D02*
X171902500Y-100000000D01*
X171152500Y-111000000D02*
X180152500Y-111000000D01*
X180152500Y-114500000D02*
X180152500Y-100000000D01*
X171152500Y-114500000D02*
X180152500Y-114500000D01*
G04 #@! TO.C,U6*
X187655000Y-109570000D02*
X187655000Y-99570000D01*
X184525000Y-109570000D02*
X184525000Y-99570000D01*
X183255000Y-99570000D02*
X183255000Y-109570000D01*
X183255000Y-102720000D02*
X184525000Y-102720000D01*
X183255000Y-109570000D02*
X187655000Y-109570000D01*
X183255000Y-106420000D02*
X184525000Y-106420000D01*
X187655000Y-99570000D02*
X183255000Y-99570000D01*
G04 #@! TD*
M02*
