M48
; DRILL file {KiCad (6.0.4)} date Wed Oct 25 12:50:50 2023
; FORMAT={-:-/ absolute / metric / decimal}
; #@! TF.CreationDate,2023-10-25T12:50:50+07:00
; #@! TF.GenerationSoftware,Kicad,Pcbnew,(6.0.4)
; #@! TF.FileFunction,Plated,1,2,PTH
FMAT,2
METRIC
; #@! TA.AperFunction,Plated,PTH,ViaDrill
T1C0.600
; #@! TA.AperFunction,Plated,PTH,ComponentDrill
T2C0.762
; #@! TA.AperFunction,Plated,PTH,ComponentDrill
T3C0.800
; #@! TA.AperFunction,Plated,PTH,ComponentDrill
T4C0.850
; #@! TA.AperFunction,Plated,PTH,ComponentDrill
T5C1.000
; #@! TA.AperFunction,Plated,PTH,ComponentDrill
T6C1.100
%
G90
G05
T1
X184.97Y-54.14
X201.28Y-94.22
X205.74Y-96.76
X212.2Y-94.93
T2
X177.27Y-63.39
X177.27Y-65.93
X179.02Y-74.44
X179.02Y-76.98
X179.02Y-79.52
X179.02Y-82.06
X179.02Y-84.6
X179.02Y-87.14
X179.81Y-63.39
X179.81Y-65.93
X182.35Y-63.39
X182.35Y-65.93
X184.1Y-74.37
X184.1Y-76.99
X184.1Y-79.53
X184.1Y-82.07
X184.1Y-84.61
X184.1Y-87.15
X184.89Y-63.39
X184.89Y-65.93
X191.53Y-49.06
X219.56Y-76.91
X219.56Y-79.45
X219.56Y-81.99
X219.56Y-84.53
T3
X212.583Y-44.44
X212.583Y-46.98
X212.583Y-49.52
X212.583Y-52.06
X220.203Y-44.44
X220.203Y-46.98
X220.203Y-49.52
X220.203Y-52.06
T4
X196.595Y-100.17
X197.61Y-102.61
X198.63Y-100.17
X199.645Y-102.71
X212.343Y-100.16
X213.358Y-102.6
X214.378Y-100.16
X215.393Y-102.7
T5
X180.665Y-71.165
X183.205Y-71.165
X185.745Y-71.165
X191.53Y-43.98
X191.53Y-46.52
X191.53Y-51.6
X191.53Y-54.14
X191.53Y-56.68
X191.53Y-59.22
X191.53Y-61.76
X191.53Y-64.3
X191.53Y-66.84
X191.53Y-69.38
X191.53Y-71.92
X191.53Y-74.46
X191.53Y-77.0
X191.53Y-79.54
X191.53Y-82.08
X191.53Y-84.62
X191.53Y-87.16
X191.53Y-89.7
X191.53Y-92.24
X196.69Y-66.04
X199.23Y-66.04
X199.415Y-54.125
X199.415Y-56.665
X199.415Y-59.205
X201.77Y-66.04
X206.77Y-43.98
X206.77Y-46.52
X206.77Y-49.06
X206.77Y-51.6
X206.77Y-54.14
X206.77Y-56.68
X206.77Y-59.22
X206.77Y-61.76
X206.77Y-64.3
X206.77Y-66.84
X206.77Y-69.38
X206.77Y-71.92
X206.77Y-74.46
X206.77Y-77.0
X206.77Y-79.54
X206.77Y-82.08
X206.77Y-84.62
X206.77Y-87.16
X206.77Y-89.7
X206.77Y-92.24
T6
X186.405Y-102.03
X186.405Y-104.57
X186.405Y-107.11
T5
G00X174.653Y-100.8
M15
G01X176.653Y-100.8
M16
G05
G00X174.653Y-106.8
M15
G01X176.653Y-106.8
M16
G05
G00X180.352Y-104.8
M15
G01X180.352Y-102.8
M16
G05
T0
M30
